<svg xmlns="http://www.w3.org/2000/svg" viewBox="0 0 32 32"><defs><style>.cls-1{fill:#fff;}</style></defs><g id="polar_bear" data-name="polar bear"><path class="cls-1" d="M28,8.4l-.45-.22L25.17,5.75a2.75,2.75,0,0,0-.35-2.33,3,3,0,0,0-4.64,0,2.77,2.77,0,0,0-.33,2.39c-.77.92-1.22,1.52-1.65,2.09l-.48.64a3.78,3.78,0,0,1-3,1.46h-3.4a9.35,9.35,0,0,0-7.12,3.29,1,1,0,1,0,1.52,1.29A7.37,7.37,0,0,1,11.36,12h3.4A5.75,5.75,0,0,0,19.3,9.76l.5-.66c.5-.67,1-1.31,2-2.45a1,1,0,0,0,.12-1.12,1,1,0,0,1-.06-1,1.06,1.06,0,0,1,1.36,0,1,1,0,0,1-.06,1,1,1,0,0,0,.17,1.18l3,3a1.1,1.1,0,0,0,.26.18l.6.3A1.55,1.55,0,0,1,28,11.57v.11a1.76,1.76,0,0,1-.66,1.37l-4,3.17a.41.41,0,0,0-.11.12s-.05,0-.06.06a1.12,1.12,0,0,0-.16.28v0h0l-2.48,7.43a5.85,5.85,0,0,0,0,3.7l.05.15H18.72l-.41-1.23A3.88,3.88,0,0,1,18.15,25L19,19.14a1,1,0,1,0-2-.28l-.84,5.87a5.9,5.9,0,0,0,.24,2.67l.64,1.92A1,1,0,0,0,18,30h9a1,1,0,0,0,.88-.53,1,1,0,0,0-.05-1l-1.34-2a3.9,3.9,0,0,1-.63-1.71l-.81-7.28,3.54-2.83A3.73,3.73,0,0,0,30,11.68v-.11A3.53,3.53,0,0,0,28,8.4ZM22.72,28l-.26-.79a3.85,3.85,0,0,1,0-2.42l1.05-3.15.37,3.3a5.84,5.84,0,0,0,.94,2.6l.31.46Z"/><path class="cls-1" d="M14,23H9.78l.19-.76A1,1,0,0,0,9.24,21,1,1,0,0,0,8,21.76l-.66,2.63a5.83,5.83,0,0,0,.13,3.26l.11.35H5V25a.47.47,0,0,0,0-.17l-.79-4.5a7.12,7.12,0,0,1-.07-2.2,1,1,0,0,0-2-.26,9.2,9.2,0,0,0,.08,2.81L3,25.09V29a1,1,0,0,0,1,1h9a1,1,0,0,0,.89-1.45L13,26.76V25h1a1,1,0,0,0,0-2Zm-2.89,4.45.27.55H9.72l-.33-1a4,4,0,0,1-.1-2H11v2A1,1,0,0,0,11.11,27.45Z"/></g></svg>